# xmcd
#
# Track frame offsets: 
#        150
#        21202
#        37534
#        51668
#        72330
#        89975
#        112092
#        132056
#        149505
#        172288
#        194288
#        207082
#
# Disc length: 3048 seconds
#
# Revision: 0
# Processed by: cddbd v1.5.1PL0 Copyright (c) Steve Scherf et al.
# Submitted via: ExactAudioCopy v0.95a5
#
DISCID=ba0be60c
DTITLE=Various Artist - Pickin' on U2
DYEAR=2001
DGENRE=Bluegrass
TTITLE0=Where the Streets Have No Name
TTITLE1=Trip Through Your Wires
TTITLE2=In God's Country
TTITLE3=One
TTITLE4=Pride
TTITLE5=With or Without You
TTITLE6=One Tree Hill
TTITLE7=Mysterious Ways
TTITLE8=All I Want is You
TTITLE9=Mothers of the Disappeared
TTITLE10=Desire
TTITLE11=I Still Haven't Found What I'm Looking For
EXTD=
EXTT0=
EXTT1=
EXTT2=
EXTT3=
EXTT4=
EXTT5=
EXTT6=
EXTT7=
EXTT8=
EXTT9=
EXTT10=
EXTT11=
PLAYORDER=
